<svg xmlns="http://www.w3.org/2000/svg" xmlns:xlink="http://www.w3.org/1999/xlink" width="1024" zoomAndPan="magnify" viewBox="0 0 768 576" height="768" preserveAspectRatio="xMidYMid meet" version="1.0"><defs><clipPath id="be94cbcda1"><path d="M 154.683594 57.601562 L 610.410156 57.601562 L 610.410156 518.101562 L 154.683594 518.101562 Z M 154.683594 57.601562 " clip-rule="nonzero"/></clipPath></defs><g clip-path="url(#be94cbcda1)"><path fill="#000000" d="M 363.40625 483.8125 C 339.234375 475.625 308.613281 478.589844 305.441406 499.753906 C 330.167969 502.375 356.859375 510.5625 382.246094 507.722656 C 390.492188 494.863281 374.175781 487.457031 363.40625 483.8125 Z M 579.335938 446.132812 C 572.871094 458.027344 564.765625 468.273438 553.25 475.117188 C 570.210938 474.441406 586.085938 472.6875 600.351562 469.320312 C 601.523438 466.628906 600.953125 462.191406 601.074219 458.449219 C 596.75 451.351562 588.902344 445.808594 579.335938 446.132812 Z M 514.847656 482.363281 C 526.886719 478.042969 540.261719 474.59375 550.351562 469.320312 C 563.867188 462.257812 575.914062 443.589844 579.335938 428.019531 C 582.773438 412.371094 577.269531 398.207031 574.261719 384.542969 C 568.789062 359.617188 555.074219 337.339844 537.308594 326.574219 C 503.121094 305.855469 439.402344 323.105469 419.203125 346.136719 C 411.886719 354.476562 408.320312 367.523438 404.707031 378.019531 C 397.664062 398.496094 390.652344 420.507812 385.871094 445.410156 C 384.527344 452.402344 377.601562 475.628906 379.347656 482.363281 C 381.175781 489.394531 393.90625 489.78125 391.667969 502.652344 C 436.640625 500.839844 479.835938 494.925781 514.847656 482.363281 Z M 522.816406 135.28125 C 511.726562 121.074219 495.652344 108.328125 481.515625 96.878906 C 476.433594 92.757812 471.789062 87.273438 467.023438 84.5625 C 450.070312 74.914062 422.578125 67.875 396.738281 66.445312 C 370.113281 64.96875 342.796875 69.398438 322.105469 74.414062 C 304.972656 78.570312 288.371094 82.613281 274.28125 91.078125 C 244.105469 109.210938 220.652344 136.550781 203.996094 168.613281 C 184.410156 206.308594 177.648438 251.183594 174.289062 303.386719 C 172.300781 334.265625 178.824219 379.539062 169.941406 406.28125 C 167.847656 412.578125 163.644531 418.980469 163.417969 426.570312 C 162.796875 447.363281 173.800781 460.308594 187.332031 470.042969 C 222.605469 480.902344 259.511719 490.128906 298.195312 497.578125 C 303.113281 487.980469 307.71875 480.636719 317.757812 475.839844 C 327.421875 471.226562 336.347656 472.875 346.742188 474.390625 C 359.097656 476.195312 367.292969 477.015625 375 481.636719 C 375.597656 457.601562 382.082031 433.835938 388.042969 411.351562 C 393.785156 389.691406 399.117188 365.9375 409.054688 349.035156 C 422.191406 326.699219 463.792969 310.605469 497.457031 309.910156 C 521.476562 309.414062 543.566406 320.703125 555.425781 333.097656 C 569.242188 347.539062 579.285156 367.957031 583.6875 391.789062 C 578.167969 290.667969 569.503906 195.058594 522.816406 135.28125 Z M 586.582031 435.988281 C 594.65625 441.453125 606.09375 445.492188 609.046875 455.550781 C 616.242188 480.0625 593.714844 480.851562 572.816406 483.085938 C 559.492188 484.511719 544.980469 482.261719 535.136719 483.8125 C 530.128906 484.597656 525.179688 488.332031 519.921875 490.332031 C 495.277344 499.699219 463.457031 505.746094 433.691406 509.171875 C 420.808594 510.65625 406.6875 509.066406 393.839844 511.347656 C 387.261719 512.515625 386.027344 516.925781 380.074219 517.867188 C 368.28125 519.730469 356.449219 516.078125 343.117188 514.96875 C 330.589844 513.925781 318.617188 512.640625 307.613281 510.621094 C 303.0625 509.785156 297.953125 507.023438 292.398438 505.550781 C 265.160156 498.328125 236.546875 494.386719 211.242188 485.261719 C 193.277344 478.78125 173.6875 473.1875 164.144531 459.175781 C 158.773438 451.289062 154.207031 435.65625 154.722656 425.121094 C 155.46875 409.992188 164.28125 400.144531 165.59375 383.09375 C 167.332031 360.535156 164.867188 337.816406 164.867188 316.429688 C 164.867188 294.914062 167.082031 273.683594 169.214844 254.113281 C 173.097656 218.511719 184.816406 179.691406 202.546875 153.398438 C 217.273438 131.554688 228.46875 114.960938 248.921875 99.050781 C 254.867188 94.425781 261.355469 88.703125 267.761719 84.5625 C 296.332031 66.085938 331.480469 63.585938 375.726562 58.472656 C 409.453125 54.578125 449.660156 64.238281 471.375 76.589844 C 477.019531 79.800781 481.523438 86.152344 487.3125 91.078125 C 503.664062 105.003906 521.640625 117.753906 534.410156 135.28125 C 551.496094 158.730469 563.203125 189.148438 571.367188 220.058594 C 575.539062 235.859375 579.816406 251.816406 582.957031 269.332031 C 586.066406 286.671875 586.316406 305.984375 588.03125 325.125 C 591.300781 361.617188 596.574219 400.671875 586.582031 435.988281 " fill-opacity="1" fill-rule="evenodd"/></g><path fill="#000000" d="M 183.707031 430.917969 C 181.613281 424.558594 181.492188 416.226562 178.636719 410.628906 C 177.035156 417.867188 179.71875 426.871094 183.707031 430.917969 Z M 188.78125 419.324219 C 191.792969 416.335938 188.316406 408.519531 184.433594 407.730469 C 185.101562 412.375 185.039062 417.75 188.78125 419.324219 Z M 227.183594 385.992188 C 223.085938 381.964844 218.824219 378.960938 216.3125 372.949219 C 210.363281 358.683594 216.328125 338.066406 214.863281 324.402344 C 209.28125 328.449219 208.203125 339.609375 207.621094 348.3125 C 206.242188 368.835938 212.964844 386.511719 224.285156 391.789062 C 261.953125 409.339844 283.234375 354.875 267.035156 321.503906 C 266.109375 321.464844 266.03125 320.574219 264.863281 320.777344 C 268.507812 352.925781 264.679688 395.085938 227.183594 385.992188 Z M 203.996094 343.242188 C 205.414062 335.675781 210.667969 324.375 206.894531 316.429688 C 206.550781 325.511719 203.1875 335.421875 203.996094 343.242188 Z M 448.183594 201.945312 C 445.695312 204.152344 441.535156 210.761719 443.113281 214.261719 C 445.78125 220.183594 465.667969 220.800781 472.820312 220.785156 C 487.660156 220.746094 508.640625 219.175781 508.328125 207.742188 C 507.988281 195.601562 483.488281 194.050781 470.644531 195.421875 C 461.050781 196.453125 451.996094 198.566406 448.183594 201.945312 Z M 377.175781 199.046875 C 378.242188 209.0625 400.386719 205.957031 398.1875 196.148438 C 397.3125 192.253906 392.507812 191.429688 387.320312 191.800781 C 381.257812 192.230469 376.535156 193.066406 377.175781 199.046875 Z M 515.570312 191.800781 C 517.640625 197.898438 536 196.710938 535.859375 188.179688 C 535.777344 183.363281 531.09375 182.058594 525.714844 182.382812 C 520.027344 182.722656 513.070312 184.429688 515.570312 191.800781 Z M 583.683594 391.789062 C 579.285156 367.957031 569.238281 347.539062 555.421875 333.097656 C 543.566406 320.703125 521.476562 309.414062 497.457031 309.910156 C 463.792969 310.605469 422.191406 326.703125 409.054688 349.035156 C 399.117188 365.9375 393.785156 389.695312 388.042969 411.351562 C 382.082031 433.835938 375.597656 457.601562 375 481.636719 C 367.289062 477.015625 359.097656 476.195312 346.742188 474.390625 C 336.347656 472.875 327.421875 471.226562 317.757812 475.839844 C 307.71875 480.636719 303.113281 487.980469 298.195312 497.578125 C 259.507812 490.128906 222.605469 480.902344 187.332031 470.042969 C 173.800781 460.308594 162.796875 447.363281 163.417969 426.570312 C 163.644531 418.980469 167.847656 412.578125 169.941406 406.28125 C 178.824219 379.539062 172.300781 334.265625 174.289062 303.386719 C 177.648438 251.183594 184.410156 206.308594 203.996094 168.613281 C 220.652344 136.550781 244.105469 109.214844 274.28125 91.082031 C 288.371094 82.617188 304.972656 78.570312 322.105469 74.414062 C 342.796875 69.398438 370.113281 64.972656 396.738281 66.445312 C 422.578125 67.875 450.070312 74.914062 467.023438 84.558594 C 471.789062 87.273438 476.429688 92.761719 481.515625 96.878906 C 495.652344 108.328125 511.722656 121.074219 522.816406 135.28125 C 569.5 195.058594 578.167969 290.667969 583.683594 391.789062 " fill-opacity="1" fill-rule="evenodd"/><path fill="#000000" d="M 525.71875 182.378906 C 531.09375 182.058594 535.78125 183.363281 535.859375 188.175781 C 536 196.710938 517.640625 197.898438 515.570312 191.800781 C 513.070312 184.425781 520.03125 182.722656 525.71875 182.378906 " fill-opacity="1" fill-rule="evenodd"/><path fill="#000000" d="M 387.320312 191.800781 C 392.511719 191.429688 397.3125 192.25 398.1875 196.148438 C 400.390625 205.957031 378.242188 209.0625 377.175781 199.046875 C 376.535156 193.0625 381.257812 192.230469 387.320312 191.800781 " fill-opacity="1" fill-rule="evenodd"/><path fill="#000000" d="M 448.910156 212.8125 C 465.691406 214.164062 492.242188 218.460938 502.527344 207.742188 C 491.90625 197.210938 451.496094 198.347656 448.910156 212.8125 Z M 470.648438 195.421875 C 483.488281 194.050781 507.988281 195.601562 508.328125 207.742188 C 508.640625 219.175781 487.660156 220.746094 472.820312 220.785156 C 465.667969 220.800781 445.78125 220.183594 443.113281 214.261719 C 441.535156 210.761719 445.699219 204.148438 448.183594 201.945312 C 451.996094 198.5625 461.050781 196.449219 470.648438 195.421875 " fill-opacity="1" fill-rule="evenodd"/><path fill="#ffffff" d="M 502.527344 207.742188 C 492.246094 218.460938 465.691406 214.164062 448.910156 212.8125 C 451.496094 198.351562 491.90625 197.210938 502.527344 207.742188 " fill-opacity="1" fill-rule="evenodd"/><path fill="#000000" d="M 206.894531 316.429688 C 210.667969 324.375 205.414062 335.675781 203.996094 343.242188 C 203.1875 335.421875 206.550781 325.511719 206.894531 316.429688 " fill-opacity="1" fill-rule="evenodd"/><path fill="#ffffff" d="M 391.664062 502.652344 C 393.90625 489.78125 381.175781 489.398438 379.347656 482.363281 C 377.601562 475.628906 384.527344 452.402344 385.871094 445.410156 C 390.652344 420.507812 397.664062 398.496094 404.707031 378.019531 C 408.320312 367.523438 411.886719 354.476562 419.203125 346.136719 C 439.402344 323.105469 503.121094 305.855469 537.308594 326.574219 C 555.074219 337.339844 568.785156 359.617188 574.261719 384.542969 C 577.265625 398.207031 582.773438 412.371094 579.335938 428.019531 C 575.914062 443.589844 563.863281 462.257812 550.351562 469.320312 C 540.257812 474.59375 526.886719 478.042969 514.847656 482.363281 C 479.832031 494.925781 436.636719 500.839844 391.664062 502.652344 " fill-opacity="1" fill-rule="evenodd"/><path fill="#000000" d="M 264.863281 320.777344 C 266.03125 320.574219 266.109375 321.464844 267.035156 321.503906 C 283.234375 354.875 261.953125 409.339844 224.285156 391.789062 C 212.964844 386.511719 206.242188 368.835938 207.621094 348.3125 C 208.203125 339.609375 209.28125 328.449219 214.863281 324.402344 C 216.328125 338.066406 210.363281 358.683594 216.3125 372.949219 C 218.824219 378.960938 223.085938 381.964844 227.183594 385.992188 C 264.679688 395.085938 268.507812 352.925781 264.863281 320.777344 " fill-opacity="1" fill-rule="evenodd"/><path fill="#000000" d="M 184.433594 407.730469 C 188.316406 408.519531 191.792969 416.335938 188.78125 419.324219 C 185.039062 417.75 185.101562 412.375 184.433594 407.730469 " fill-opacity="1" fill-rule="evenodd"/><path fill="#000000" d="M 178.636719 410.628906 C 181.492188 416.226562 181.613281 424.558594 183.707031 430.917969 C 179.71875 426.871094 177.035156 417.867188 178.636719 410.628906 " fill-opacity="1" fill-rule="evenodd"/><path fill="#ffffff" d="M 601.074219 458.449219 C 600.949219 462.191406 601.523438 466.628906 600.347656 469.320312 C 586.082031 472.6875 570.207031 474.441406 553.25 475.117188 C 564.765625 468.273438 572.871094 458.027344 579.332031 446.132812 C 588.898438 445.808594 596.75 451.351562 601.074219 458.449219 " fill-opacity="1" fill-rule="evenodd"/><path fill="#ffffff" d="M 382.246094 507.722656 C 356.859375 510.5625 330.167969 502.375 305.441406 499.753906 C 308.613281 478.589844 339.234375 475.625 363.40625 483.8125 C 374.175781 487.457031 390.492188 494.863281 382.246094 507.722656 " fill-opacity="1" fill-rule="evenodd"/></svg>